<svg width="515" height="136" viewBox="0 0 515 136" fill="none" xmlns="http://www.w3.org/2000/svg">
<path d="M195.596 40.918H187.904V61.5H195.596C198.532 61.5 200.559 60.7624 201.676 59.2871C202.793 57.8118 203.352 55.1191 203.352 51.209C203.352 47.3132 202.793 44.6276 201.676 43.1523C200.559 41.6628 198.532 40.918 195.596 40.918ZM181.266 35.418H195.725C200.809 35.418 204.562 36.75 206.982 39.4141C209.403 42.0638 210.613 46.1816 210.613 51.7676C210.613 54.6465 210.205 57.1243 209.389 59.2012C208.587 61.2637 207.376 62.9395 205.758 64.2285C204.512 65.2311 203.18 65.9473 201.762 66.377C200.344 66.7923 198.396 67 195.918 67H181.266V35.418ZM222.193 67H215.254V35.418H222.193V67ZM254.699 41.0469L236.91 61.4141H254.699V67H228.037V61.4141L246.062 41.0469H228.037V35.418H254.699V41.0469ZM259.061 50.8867C259.061 45.4583 260.357 41.4193 262.949 38.7695C265.556 36.1198 269.516 34.7949 274.83 34.7949C280.187 34.7949 284.147 36.1341 286.711 38.8125C289.289 41.4909 290.578 45.623 290.578 51.209C290.578 56.7949 289.289 60.9342 286.711 63.627C284.147 66.3197 280.187 67.666 274.83 67.666C269.416 67.666 265.434 66.3125 262.885 63.6055C260.335 60.8984 259.061 56.6589 259.061 50.8867ZM274.83 40.209C271.98 40.209 269.846 41.097 268.428 42.873C267.024 44.6491 266.322 47.3346 266.322 50.9297C266.322 54.8255 267.003 57.6829 268.363 59.502C269.738 61.3066 271.894 62.209 274.83 62.209C277.723 62.209 279.865 61.3138 281.254 59.5234C282.658 57.7188 283.359 54.9473 283.359 51.209C283.359 47.4564 282.658 44.6849 281.254 42.8945C279.865 41.1042 277.723 40.209 274.83 40.209ZM295.133 35.418H303.533L316.467 58.1055L316.145 35.418H322.934V67H315.221L301.643 43.1094L301.943 67H295.133V35.418ZM359.457 40.918C357.051 40.918 355.232 41.5195 354 42.7227C352.783 43.9258 352.109 45.7663 351.98 48.2441L370.371 48.2656V53.7656H351.938C351.952 56.5156 352.532 58.4922 353.678 59.6953C354.838 60.8984 356.764 61.5 359.457 61.5H370.371V67H359.135C356.657 67 354.709 66.7923 353.291 66.377C351.873 65.9473 350.541 65.2311 349.295 64.2285C347.676 62.9395 346.459 61.2637 345.643 59.2012C344.84 57.1243 344.439 54.6465 344.439 51.7676C344.439 46.1816 345.65 42.0638 348.07 39.4141C350.491 36.75 354.243 35.418 359.328 35.418H370.371V40.918H359.457ZM402.877 41.0469H386.463C384.701 41.0469 383.405 41.3763 382.574 42.0352C381.758 42.694 381.35 43.7396 381.35 45.1719C381.35 46.3177 381.701 47.1771 382.402 47.75C383.104 48.3229 384.15 48.6094 385.539 48.6094H394.326C397.964 48.6094 400.549 49.2969 402.082 50.6719C403.629 52.0469 404.402 54.3385 404.402 57.5469C404.402 60.7982 403.514 63.1901 401.738 64.7227C399.962 66.2409 397.169 67 393.359 67H375.678V61.3711H392.307C394.197 61.3711 395.529 61.099 396.303 60.5547C397.076 59.9961 397.463 59.0794 397.463 57.8047C397.463 56.487 397.105 55.5488 396.389 54.9902C395.687 54.4316 394.477 54.1523 392.758 54.1523H384.916C381.278 54.1523 378.614 53.429 376.924 51.9824C375.248 50.5215 374.41 48.2227 374.41 45.0859C374.41 41.7344 375.291 39.2852 377.053 37.7383C378.829 36.1914 381.643 35.418 385.496 35.418H402.877V41.0469ZM416.283 40.9609H406.078V35.4609H433.406V40.9609H423.158V67H416.283V40.9609ZM444.9 41.6914L440.281 53.8516H449.691L444.9 41.6914ZM441.635 35.418H448.682L462.152 67H454.762L451.861 59.4805H438.133L435.318 67H428.271L441.635 35.418ZM467.244 40.9609H457.039V35.4609H484.367V40.9609H474.119V67H467.244V40.9609ZM500.609 40.918C498.203 40.918 496.384 41.5195 495.152 42.7227C493.935 43.9258 493.262 45.7663 493.133 48.2441L511.523 48.2656V53.7656H493.09C493.104 56.5156 493.684 58.4922 494.83 59.6953C495.99 60.8984 497.917 61.5 500.609 61.5H511.523V67H500.287C497.809 67 495.861 66.7923 494.443 66.377C493.025 65.9473 491.693 65.2311 490.447 64.2285C488.829 62.9395 487.611 61.2637 486.795 59.2012C485.993 57.1243 485.592 54.6465 485.592 51.7676C485.592 46.1816 486.802 42.0638 489.223 39.4141C491.643 36.75 495.396 35.418 500.48 35.418H511.523V40.918H500.609Z" fill="#1C2F4A"/>
<path d="M237.613 93.6133H233.727V97.4072H237.613C238.666 97.4072 239.397 97.2637 239.808 96.9766C240.218 96.6895 240.423 96.1973 240.423 95.5C240.423 94.8096 240.221 94.3242 239.818 94.0439C239.421 93.7568 238.687 93.6133 237.613 93.6133ZM230.559 90.9268H238.362C240.18 90.9268 241.513 91.2925 242.361 92.0239C243.208 92.7554 243.632 93.9004 243.632 95.459C243.632 96.6143 243.369 97.5576 242.843 98.2891C242.323 99.0205 241.571 99.4922 240.587 99.7041L244.35 106H240.782L237.459 100.073H233.727V106H230.559V90.9268ZM252.522 93.5518C251.374 93.5518 250.506 93.8389 249.918 94.4131C249.337 94.9873 249.016 95.8657 248.954 97.0483L257.731 97.0586V99.6836H248.934C248.94 100.996 249.217 101.939 249.764 102.514C250.318 103.088 251.237 103.375 252.522 103.375H257.731V106H252.369C251.186 106 250.256 105.901 249.58 105.703C248.903 105.498 248.267 105.156 247.672 104.677C246.9 104.062 246.319 103.262 245.929 102.278C245.546 101.287 245.355 100.104 245.355 98.73C245.355 96.064 245.933 94.0986 247.088 92.834C248.243 91.5625 250.034 90.9268 252.461 90.9268H257.731V93.5518H252.522ZM273.246 93.6133H265.412C264.571 93.6133 263.952 93.7705 263.556 94.085C263.166 94.3994 262.971 94.8984 262.971 95.582C262.971 96.1289 263.139 96.5391 263.474 96.8125C263.809 97.0859 264.308 97.2227 264.971 97.2227H269.165C270.901 97.2227 272.135 97.5508 272.866 98.207C273.604 98.8633 273.974 99.957 273.974 101.488C273.974 103.04 273.55 104.182 272.702 104.913C271.854 105.638 270.521 106 268.703 106H260.264V103.313H268.201C269.103 103.313 269.739 103.184 270.108 102.924C270.477 102.657 270.662 102.22 270.662 101.611C270.662 100.982 270.491 100.535 270.149 100.268C269.814 100.001 269.236 99.8682 268.416 99.8682H264.673C262.937 99.8682 261.666 99.5229 260.859 98.8325C260.059 98.1353 259.659 97.0381 259.659 95.541C259.659 93.9414 260.08 92.7725 260.92 92.0342C261.768 91.2959 263.111 90.9268 264.95 90.9268H273.246V93.6133ZM279.685 106H276.373V90.9268H279.685V106ZM289.672 93.5518H286.001V103.375H289.672C291.074 103.375 292.041 103.023 292.574 102.319C293.107 101.615 293.374 100.33 293.374 98.4634C293.374 96.604 293.107 95.3223 292.574 94.6182C292.041 93.9072 291.074 93.5518 289.672 93.5518ZM282.833 90.9268H289.734C292.161 90.9268 293.952 91.5625 295.107 92.834C296.262 94.0986 296.84 96.064 296.84 98.73C296.84 100.104 296.645 101.287 296.255 102.278C295.873 103.262 295.295 104.062 294.522 104.677C293.928 105.156 293.292 105.498 292.615 105.703C291.938 105.901 291.009 106 289.826 106H282.833V90.9268ZM305.248 93.5518C304.1 93.5518 303.231 93.8389 302.644 94.4131C302.062 94.9873 301.741 95.8657 301.68 97.0483L310.457 97.0586V99.6836H301.659C301.666 100.996 301.943 101.939 302.49 102.514C303.043 103.088 303.963 103.375 305.248 103.375H310.457V106H305.094C303.912 106 302.982 105.901 302.305 105.703C301.628 105.498 300.993 105.156 300.398 104.677C299.625 104.062 299.044 103.262 298.655 102.278C298.272 101.287 298.081 100.104 298.081 98.73C298.081 96.064 298.658 94.0986 299.813 92.834C300.969 91.5625 302.76 90.9268 305.187 90.9268H310.457V93.5518H305.248ZM313.226 90.9268H317.235L323.408 101.755L323.254 90.9268H326.494V106H322.813L316.333 94.5977L316.476 106H313.226V90.9268ZM332.862 93.5723H327.991V90.9473H341.034V93.5723H336.143V106H332.862V93.5723ZM345.905 106H342.593V90.9268H345.905V106ZM354.928 93.9209L352.724 99.7246H357.215L354.928 93.9209ZM353.37 90.9268H356.733L363.162 106H359.635L358.25 102.411H351.698L350.355 106H346.992L353.37 90.9268ZM370.207 106C368.798 106 367.752 105.884 367.069 105.651C366.385 105.412 365.773 105.002 365.233 104.421C364.734 103.901 364.382 103.313 364.177 102.657C363.972 102.001 363.87 101.078 363.87 99.8887V90.9268H367.038V99.7861C367.038 100.668 367.076 101.29 367.151 101.652C367.233 102.008 367.37 102.295 367.561 102.514C367.862 102.869 368.231 103.122 368.668 103.272C369.106 103.423 369.711 103.498 370.483 103.498H374.216V106H370.207ZM390.273 93.5518C389.125 93.5518 388.257 93.8389 387.669 94.4131C387.088 94.9873 386.767 95.8657 386.705 97.0483L395.482 97.0586V99.6836H386.685C386.691 100.996 386.968 101.939 387.515 102.514C388.069 103.088 388.988 103.375 390.273 103.375H395.482V106H390.12C388.937 106 388.007 105.901 387.331 105.703C386.654 105.498 386.018 105.156 385.423 104.677C384.651 104.062 384.07 103.262 383.68 102.278C383.297 101.287 383.106 100.104 383.106 98.73C383.106 96.064 383.684 94.0986 384.839 92.834C385.994 91.5625 387.785 90.9268 390.212 90.9268H395.482V93.5518H390.273ZM410.997 93.6133H403.163C402.322 93.6133 401.703 93.7705 401.307 94.085C400.917 94.3994 400.722 94.8984 400.722 95.582C400.722 96.1289 400.89 96.5391 401.225 96.8125C401.56 97.0859 402.059 97.2227 402.722 97.2227H406.916C408.652 97.2227 409.886 97.5508 410.617 98.207C411.355 98.8633 411.725 99.957 411.725 101.488C411.725 103.04 411.301 104.182 410.453 104.913C409.605 105.638 408.272 106 406.454 106H398.015V103.313H405.952C406.854 103.313 407.49 103.184 407.859 102.924C408.228 102.657 408.413 102.22 408.413 101.611C408.413 100.982 408.242 100.535 407.9 100.268C407.565 100.001 406.987 99.8682 406.167 99.8682H402.424C400.688 99.8682 399.417 99.5229 398.61 98.8325C397.81 98.1353 397.41 97.0381 397.41 95.541C397.41 93.9414 397.831 92.7725 398.671 92.0342C399.519 91.2959 400.862 90.9268 402.701 90.9268H410.997V93.6133ZM417.395 93.5723H412.524V90.9473H425.567V93.5723H420.676V106H417.395V93.5723ZM431.053 93.9209L428.849 99.7246H433.34L431.053 93.9209ZM429.495 90.9268H432.858L439.287 106H435.76L434.375 102.411H427.823L426.48 106H423.117L429.495 90.9268ZM441.717 93.5723H436.847V90.9473H449.89V93.5723H444.999V106H441.717V93.5723ZM457.642 93.5518C456.493 93.5518 455.625 93.8389 455.037 94.4131C454.456 94.9873 454.135 95.8657 454.073 97.0483L462.851 97.0586V99.6836H454.053C454.06 100.996 454.336 101.939 454.883 102.514C455.437 103.088 456.356 103.375 457.642 103.375H462.851V106H457.488C456.305 106 455.375 105.901 454.699 105.703C454.022 105.498 453.386 105.156 452.792 104.677C452.019 104.062 451.438 103.262 451.048 102.278C450.666 101.287 450.474 100.104 450.474 98.73C450.474 96.064 451.052 94.0986 452.207 92.834C453.362 91.5625 455.153 90.9268 457.58 90.9268H462.851V93.5518H457.642Z" fill="#1C2F4A"/>
<rect x="181" y="77" width="331" height="3" fill="#1C2F4A"/>
<path d="M101.652 74.7476C100.984 78.7383 100.275 82.9732 99.3648 87.5959Z" fill="#FBA927"/>
<path fill-rule="evenodd" clip-rule="evenodd" d="M68.1435 109.871C73.5748 107.234 81.483 102.641 84.3699 97.1428C88.1231 89.9944 89.6533 80.1549 91.1701 70.4021C93.584 54.8807 95.9637 39.579 107.215 35.6944C99.5248 35.9203 94.5486 37.7276 94.5486 37.7276C94.5486 37.7276 65.0595 45.6966 73.7388 68.4518C75.5484 73.196 75.096 76.5847 67.8578 72.9701C58.8101 68.4518 60.6196 47.9501 78.2627 38.4053C92.8782 30.4984 110.608 28.4651 128.477 30.4984C154.152 33.4197 160.898 53.3156 149.966 79.2957C143.406 94.8837 130.061 110.472 103.596 112.957C92.6209 113.987 77.0552 113.252 68.6304 112.712C67.1874 112.619 66.843 110.502 68.1435 109.871ZM101.652 74.7476C103.988 60.7974 105.824 49.8289 114.001 35.6942C114.002 35.6941 114.004 35.694 114.005 35.6939C122.051 34.735 129.397 36.1967 134.212 41.8037C139.699 47.0263 142.308 55.4787 141.144 66.8704C140.587 72.327 139.271 79.0342 136.557 85.4131C134.177 92.1146 130.14 97.7744 123.049 102.339C110.338 110.52 89.3461 106.405 89.3461 106.405C89.3461 106.405 95.7916 102.903 97.6312 95.682C97.6604 95.5674 97.6884 95.452 97.7152 95.3356" fill="#FBA927"/>
<path d="M121.142 121.458C110.017 129.401 96.6426 134.318 82.5674 135.64C68.4922 136.961 54.2929 134.632 41.6151 128.924C28.9373 123.216 18.3002 114.361 10.9365 103.387C3.57287 92.4123 -0.215849 79.7672 0.00949787 66.9171C0.234845 54.0669 4.46503 41.5378 12.2098 30.7819C19.9545 20.026 30.8967 11.4836 43.7682 6.14487C56.6397 0.806118 70.9135 -1.11043 84.9352 0.617346C98.9569 2.34512 112.152 7.64648 122.993 15.907C131.563 22.438 122.024 23.575 117.654 23.7648C116.383 23.82 115.162 23.3759 114.127 22.6367C105.239 16.2919 94.6366 12.2089 83.4103 10.8255C71.5128 9.35951 59.4015 10.9857 48.48 15.5157C37.5585 20.0456 28.274 27.2938 21.7025 36.4203C15.1311 45.5467 11.5417 56.1777 11.3505 67.0811C11.1593 77.9845 14.3741 88.714 20.6222 98.0259C26.8703 107.338 35.8959 114.851 46.6531 119.694C57.4102 124.538 69.4584 126.514 81.4012 125.392C92.6748 124.334 103.419 120.557 112.527 114.469C113.581 113.764 114.81 113.358 116.075 113.45C120.433 113.765 129.941 115.175 121.142 121.458Z" fill="#FBA927"/>
<path d="M65.807 100.683C62.6251 107.952 54.2848 108.571 49.2294 105.359C44.1739 102.148 44.4567 94.8004 46.6142 90.4383C48.6743 86.2734 56.1431 79.0237 79.8774 76.6195C81.1079 76.4949 81.8266 77.9557 80.9922 78.8675C70.3795 90.4656 68.5402 94.4386 65.807 100.683Z" fill="#FBA927"/>
<path d="M58.7432 116.514C57.2427 119.105 54.0894 118.986 52.3298 117.568C50.5702 116.151 50.9871 113.408 51.9805 111.863C52.8398 110.528 55.799 108.433 63.0226 108.623C64.2872 108.656 64.7018 110.264 63.6962 111.03C60.7672 113.263 59.8169 114.66 58.7432 116.514Z" fill="#FBA927"/>
<path fill-rule="evenodd" clip-rule="evenodd" d="M26.7032 87.7201C21.8124 84.6683 19.1469 77.0664 18.9651 69.5701C18.7881 62.2723 22.43 44.1507 54.6786 19.7733C55.6509 19.0383 57.019 19.8768 56.8258 21.0793C53.6874 40.6078 53.9058 51.2823 54.0723 59.4197C54.1487 63.1515 54.2141 66.3498 53.9399 69.6237C53.0311 80.4718 44.3365 88.7973 40.3379 89.9383C36.3394 91.0792 31.594 90.7719 26.7032 87.7201ZM34.8323 76.6693C35.0459 73.9375 35.3466 70.0921 36.3078 65.1582C37.6287 58.3767 39.7945 52.8508 41.1212 49.4657C42.0228 47.1653 42.537 45.8535 42.1351 45.8082C41.1421 45.6964 33.9785 53.2713 31.5876 64.6264C29.6237 73.9537 31.2849 81.4159 33.3078 81.6438C34.4334 81.7706 34.5643 80.096 34.8323 76.6693Z" fill="#FBA927"/>
</svg>
