<svg width="110" height="114" viewBox="0 0 110 114" fill="none" xmlns="http://www.w3.org/2000/svg">
<g clip-path="url(#clip0_84_340)">
<path d="M5.74341 89.7525H3.23286V96.3994H5.74341C6.70181 96.3994 7.36335 96.1611 7.72801 95.6847C8.09267 95.2084 8.27501 94.3387 8.27501 93.076C8.27501 91.8178 8.09267 90.9507 7.72801 90.474C7.36335 89.9931 6.70181 89.7525 5.74341 89.7525ZM1.06593 87.9763H5.78548C7.44514 87.9763 8.67003 88.4065 9.46013 89.2668C10.2502 90.1226 10.6453 91.4525 10.6453 93.2565C10.6453 94.1859 10.5121 94.9862 10.2456 95.657C9.98376 96.3232 9.58871 96.8641 9.06041 97.2807C8.65367 97.6043 8.2189 97.8356 7.75605 97.9744C7.29323 98.1085 6.65739 98.1756 5.84861 98.1756H1.06593V87.9763ZM14.4251 98.1756H12.16V87.9763H14.4251V98.1756ZM25.0354 89.7942L19.2289 96.3716H25.0354V98.1756H16.3326V96.3716L22.2163 89.7942H16.3326V87.9763H25.0354V89.7942ZM26.4589 92.972C26.4589 91.2187 26.882 89.9143 27.7282 89.0588C28.5791 88.203 29.8718 87.7751 31.6063 87.7751C33.3548 87.7751 34.6474 88.2076 35.4843 89.0724C36.3258 89.9376 36.7465 91.272 36.7465 93.076C36.7465 94.88 36.3258 96.2166 35.4843 97.0863C34.6474 97.956 33.3548 98.3907 31.6063 98.3907C29.8391 98.3907 28.5394 97.9534 27.7072 97.0792C26.875 96.205 26.4589 94.836 26.4589 92.972ZM31.6063 89.5236C30.6759 89.5236 29.9793 89.8103 29.5165 90.3839C29.0583 90.9574 28.8292 91.8249 28.8292 92.9859C28.8292 94.2441 29.0513 95.1667 29.4954 95.7542C29.9443 96.3371 30.6479 96.6284 31.6063 96.6284C32.5506 96.6284 33.2497 96.3394 33.7031 95.761C34.1614 95.1784 34.3902 94.2832 34.3902 93.076C34.3902 91.864 34.1614 90.9691 33.7031 90.391C33.2497 89.8126 32.5506 89.5236 31.6063 89.5236ZM38.2333 87.9763H40.9752L45.1969 95.303L45.0918 87.9763H47.3078V98.1756H44.7902L40.3583 90.4601L40.4562 98.1756H38.2333V87.9763ZM59.2293 89.7525C58.4439 89.7525 57.8502 89.947 57.4481 90.3355C57.0508 90.724 56.8308 91.3182 56.7887 92.1184L62.7917 92.1255V93.9018H56.775C56.7796 94.7899 56.9689 95.428 57.343 95.8165C57.7216 96.205 58.3503 96.3994 59.2293 96.3994H62.7917V98.1756H59.1242C58.3153 98.1756 57.6795 98.1085 57.2166 97.9744C56.7538 97.8356 56.319 97.6043 55.9123 97.2807C55.3839 96.8641 54.9866 96.3232 54.7203 95.657C54.4582 94.9862 54.3273 94.1859 54.3273 93.2565C54.3273 91.4525 54.7226 90.1226 55.5125 89.2668C56.3027 88.4065 57.5274 87.9763 59.1872 87.9763H62.7917V89.7525H59.2293ZM73.402 89.7942H68.0443C67.4692 89.7942 67.0461 89.9005 66.7749 90.1133C66.5085 90.3261 66.3754 90.6639 66.3754 91.1264C66.3754 91.4965 66.4899 91.7739 66.7188 91.9589C66.9479 92.144 67.2893 92.2363 67.7427 92.2363H70.6109C71.7983 92.2363 72.6421 92.4585 73.1425 92.9026C73.6474 93.3466 73.8998 94.0868 73.8998 95.1228C73.8998 96.1727 73.6099 96.9452 73.0302 97.4403C72.4505 97.9305 71.5388 98.1756 70.2952 98.1756H64.524V96.3578H69.9518C70.5688 96.3578 71.0035 96.2699 71.2562 96.0942C71.5085 95.9137 71.6348 95.6176 71.6348 95.2061C71.6348 94.7805 71.518 94.4776 71.2842 94.297C71.0551 94.1168 70.6601 94.0264 70.0991 94.0264H67.5393C66.3519 94.0264 65.4823 93.7929 64.9307 93.3256C64.3836 92.8538 64.1101 92.1117 64.1101 91.0986C64.1101 90.0161 64.3977 89.2252 64.9728 88.7256C65.5525 88.226 66.471 87.9763 67.7287 87.9763H73.402V89.7942ZM77.7778 89.7664H74.4468V87.9902H83.3669V89.7664H80.0219V98.1756H77.7778V89.7664ZM87.1187 90.0022L85.611 93.9295H88.6825L87.1187 90.0022ZM86.053 87.9763H88.3532L92.7499 98.1756H90.3377L89.3908 95.7471H84.9099L83.991 98.1756H81.6908L86.053 87.9763ZM94.412 89.7664H91.081V87.9902H100.001V89.7664H96.6561V98.1756H94.412V89.7664ZM105.303 89.7525C104.517 89.7525 103.924 89.947 103.521 90.3355C103.124 90.724 102.905 91.3182 102.862 92.1184L108.865 92.1255V93.9018H102.848C102.853 94.7899 103.042 95.428 103.416 95.8165C103.795 96.205 104.424 96.3994 105.303 96.3994H108.865V98.1756H105.198C104.389 98.1756 103.753 98.1085 103.29 97.9744C102.827 97.8356 102.392 97.6043 101.986 97.2807C101.458 96.8641 101.06 96.3232 100.794 95.657C100.532 94.9862 100.401 94.1859 100.401 93.2565C100.401 91.4525 100.796 90.1226 101.586 89.2668C102.376 88.4065 103.601 87.9763 105.261 87.9763H108.865V89.7525H105.303Z" fill="#1C2F4A"/>
<path d="M4.27995 108.069H2.47313V109.579H4.27995C4.76938 109.579 5.10948 109.523 5.30015 109.408C5.49086 109.294 5.58622 109.098 5.58622 108.82C5.58622 108.546 5.49244 108.352 5.30494 108.241C5.12059 108.127 4.77891 108.069 4.27995 108.069ZM1 107H4.62795C5.47338 107 6.09314 107.145 6.48721 107.437C6.88133 107.728 7.07837 108.183 7.07837 108.804C7.07837 109.264 6.956 109.64 6.71131 109.931C6.46973 110.222 6.12015 110.409 5.66247 110.494L7.4121 113H5.75304L4.20844 110.641H2.47313V113H1V107ZM11.2117 108.045C10.6777 108.045 10.2741 108.159 10.0008 108.388C9.73062 108.616 9.58124 108.966 9.55264 109.437L13.6335 109.441V110.486H9.54311C9.54627 111.008 9.67501 111.383 9.92928 111.612C10.1867 111.841 10.6142 111.955 11.2117 111.955H13.6335V113H11.1402C10.5903 113 10.1581 112.961 9.84346 112.882C9.52879 112.8 9.23323 112.664 8.95674 112.473C8.59758 112.229 8.32741 111.91 8.14627 111.518C7.9683 111.124 7.87931 110.653 7.87931 110.106C7.87931 109.045 8.14785 108.263 8.68499 107.759C9.22212 107.253 10.0548 107 11.1831 107H13.6335V108.045H11.2117ZM20.8465 108.069H17.2042C16.8133 108.069 16.5257 108.132 16.3414 108.257C16.1602 108.382 16.0696 108.581 16.0696 108.853C16.0696 109.071 16.1475 109.234 16.3032 109.343C16.459 109.452 16.691 109.506 16.9993 109.506H18.9491C19.7564 109.506 20.3301 109.637 20.6701 109.898C21.0134 110.159 21.185 110.595 21.185 111.204C21.185 111.822 20.988 112.276 20.5938 112.567C20.1998 112.856 19.58 113 18.7346 113H14.8111V111.93H18.501C18.9205 111.93 19.2161 111.879 19.3877 111.776C19.5594 111.669 19.6451 111.495 19.6451 111.253C19.6451 111.003 19.5657 110.825 19.4068 110.718C19.2511 110.612 18.9825 110.559 18.6011 110.559H16.861C16.0537 110.559 15.4626 110.422 15.0876 110.147C14.7157 109.869 14.5298 109.433 14.5298 108.837C14.5298 108.2 14.7252 107.734 15.1161 107.441C15.5103 107.147 16.1348 107 16.9897 107H20.8465V108.069ZM23.8404 113H22.3005V107H23.8404V113ZM28.4837 108.045H26.7769V111.955H28.4837C29.1355 111.955 29.5851 111.815 29.8329 111.535C30.0807 111.254 30.2048 110.743 30.2048 110C30.2048 109.26 30.0807 108.749 29.8329 108.469C29.5851 108.186 29.1355 108.045 28.4837 108.045ZM25.304 107H28.5125C29.6409 107 30.4736 107.253 31.0106 107.759C31.5476 108.263 31.8163 109.045 31.8163 110.106C31.8163 110.653 31.7256 111.124 31.5443 111.518C31.3667 111.91 31.098 112.229 30.7386 112.473C30.4624 112.664 30.1667 112.8 29.852 112.882C29.5372 112.961 29.1053 113 28.5553 113H25.304V107ZM35.7254 108.045C35.1917 108.045 34.7877 108.159 34.5148 108.388C34.2442 108.616 34.0949 108.966 34.0666 109.437L38.1473 109.441V110.486H34.0568C34.06 111.008 34.1888 111.383 34.4432 111.612C34.7003 111.841 35.128 111.955 35.7254 111.955H38.1473V113H35.6538C35.1043 113 34.6719 112.961 34.3571 112.882C34.0424 112.8 33.7472 112.664 33.4705 112.473C33.1111 112.229 32.841 111.91 32.6601 111.518C32.4821 111.124 32.3933 110.653 32.3933 110.106C32.3933 109.045 32.6615 108.263 33.1985 107.759C33.736 107.253 34.5687 107 35.6971 107H38.1473V108.045H35.7254ZM39.4347 107H41.2986L44.1686 111.31L44.097 107H45.6034V113H43.892L40.8792 108.461L40.9457 113H39.4347V107ZM48.564 108.053H46.2994V107.008H52.3635V108.053H50.0895V113H48.564V108.053ZM54.6281 113H53.0883V107H54.6281V113ZM58.8232 108.192L57.7985 110.502H59.8865L58.8232 108.192ZM58.0989 107H59.6624L62.6515 113H61.0116L60.3677 111.571H57.3215L56.6971 113H55.1335L58.0989 107ZM65.9269 113C65.2718 113 64.7855 112.954 64.4679 112.861C64.1499 112.766 63.8654 112.603 63.6143 112.371C63.3823 112.164 63.2187 111.93 63.1234 111.669C63.0281 111.408 62.9806 111.041 62.9806 110.567V107H64.4535V110.526C64.4535 110.878 64.4712 111.125 64.5061 111.269C64.5442 111.411 64.6079 111.525 64.6967 111.612C64.8366 111.754 65.0082 111.854 65.2114 111.914C65.415 111.974 65.6963 112.004 66.0552 112.004H67.7908V113H65.9269ZM75.2562 108.045C74.7225 108.045 74.3189 108.159 74.0455 108.388C73.7754 108.616 73.6262 108.966 73.5973 109.437L77.678 109.441V110.486H73.588C73.5908 111.008 73.7196 111.383 73.9739 111.612C74.2315 111.841 74.6588 111.955 75.2562 111.955H77.678V113H75.1851C74.6351 113 74.2027 112.961 73.8884 112.882C73.5736 112.8 73.2779 112.664 73.0013 112.473C72.6424 112.229 72.3722 111.91 72.1909 111.518C72.0128 111.124 71.924 110.653 71.924 110.106C71.924 109.045 72.1928 108.263 72.7298 107.759C73.2668 107.253 74.0995 107 75.2279 107H77.678V108.045H75.2562ZM84.8914 108.069H81.2492C80.8582 108.069 80.5704 108.132 80.3863 108.257C80.2049 108.382 80.1143 108.581 80.1143 108.853C80.1143 109.071 80.1924 109.234 80.3481 109.343C80.5039 109.452 80.7359 109.506 81.0441 109.506H82.9941C83.8012 109.506 84.3749 109.637 84.7148 109.898C85.0579 110.159 85.2299 110.595 85.2299 111.204C85.2299 111.822 85.0328 112.276 84.6385 112.567C84.2443 112.856 83.6245 113 82.7793 113H78.8557V111.93H82.5459C82.9652 111.93 83.2609 111.879 83.4325 111.776C83.604 111.669 83.6901 111.495 83.6901 111.253C83.6901 111.003 83.6106 110.825 83.4516 110.718C83.2958 110.612 83.0271 110.559 82.6458 110.559H80.9056C80.0985 110.559 79.5075 110.422 79.1323 110.147C78.7604 109.869 78.5744 109.433 78.5744 108.837C78.5744 108.2 78.7702 107.734 79.1607 107.441C79.555 107.147 80.1794 107 81.0344 107H84.8914V108.069ZM87.8661 108.053H85.6014V107.008H91.6655V108.053H89.3915V113H87.8661V108.053ZM94.2161 108.192L93.1914 110.502H95.2794L94.2161 108.192ZM93.4917 107H95.0553L98.0443 113H96.4045L95.7606 111.571H92.7144L92.09 113H90.5264L93.4917 107ZM99.1741 108.053H96.9099V107.008H102.974V108.053H100.7V113H99.1741V108.053ZM106.578 108.045C106.044 108.045 105.64 108.159 105.367 108.388C105.097 108.616 104.948 108.966 104.919 109.437L109 109.441V110.486H104.91C104.913 111.008 105.041 111.383 105.295 111.612C105.553 111.841 105.98 111.955 106.578 111.955H109V113H106.507C105.957 113 105.524 112.961 105.21 112.882C104.895 112.8 104.599 112.664 104.323 112.473C103.964 112.229 103.694 111.91 103.512 111.518C103.335 111.124 103.246 110.653 103.246 110.106C103.246 109.045 103.514 108.263 104.051 107.759C104.588 107.253 105.421 107 106.549 107H109V108.045H106.578Z" fill="#1C2F4A"/>
<path d="M109.021 102.697H0.979225V103.666H109.021V102.697Z" fill="#1C2F4A"/>
<path d="M72.2295 43.8416C71.8342 46.1823 71.4148 48.666 70.8762 51.3775L72.2295 43.8416Z" fill="#FBA927"/>
<path fill-rule="evenodd" clip-rule="evenodd" d="M60.9364 79.5562C69.2654 78.7814 77.1799 75.8975 83.7626 71.2387C89.354 67.2816 82.4537 66.6196 80.2488 66.5101C79.8349 66.4894 79.4337 66.6183 79.0926 66.8511C73.6129 70.5912 67.0948 72.909 60.2464 73.5461C53.9106 74.1356 47.5249 73.2654 41.6844 71.032C41.651 70.9264 41.5893 70.8107 41.4961 70.692C38.1295 66.4019 33.9463 55.4544 38.9808 52.3392C44.0062 49.2299 46.2176 45.591 46.0316 39.2086C45.9754 37.283 45.7246 35.4236 45.4319 33.2544L45.4316 33.2528L45.4315 33.2517C44.7934 28.52 43.9563 22.313 44.5046 10.726C44.5386 10.0124 43.6782 9.61359 43.1553 10.1058C25.8115 26.4312 24.8734 37.2321 25.4621 41.474C26.0668 45.8312 28.0052 50.6166 32.1546 52.8692C34.5204 54.1539 34.8847 56.3861 35.4553 59.8855L35.4555 59.8869C35.8573 62.35 36.3614 65.4408 37.7381 69.2706C32.229 66.4381 27.5943 62.3903 24.2803 57.4948C20.583 52.0331 18.6807 45.7402 18.7938 39.3449C18.9069 32.9499 21.0309 26.7144 24.9196 21.3615C28.8083 16.0086 34.3024 11.7573 40.7653 9.10036C47.2279 6.44342 54.3948 5.4896 61.4352 6.34948C68.2561 7.18255 74.6877 9.68503 80.0317 13.5788C80.3666 13.8228 80.7651 13.9641 81.181 13.9553C83.3914 13.9087 90.3045 13.4438 84.858 9.32988C78.4434 4.48488 70.6347 1.37548 62.3374 0.362091C54.04 -0.651298 45.5935 0.47281 37.9771 3.60414C30.3603 6.73546 23.8852 11.7458 19.3023 18.0544C14.7193 24.3631 12.2161 31.7117 12.0828 39.2486C11.9494 46.7855 14.1914 54.2023 18.5488 60.6393C22.9063 67.0759 29.2008 72.2695 36.7028 75.6175C44.205 78.9655 52.6074 80.3312 60.9364 79.5562ZM35.3668 37.7637C35.1295 40.7025 35.2078 42.9635 35.2637 44.5698C35.3338 46.5847 35.3681 47.569 34.6977 47.569C33.4932 47.569 32.0207 43.329 32.5561 37.7637C33.2079 30.9887 36.9172 26.1034 37.5084 26.1034C37.7477 26.1034 37.533 26.9 37.1564 28.2972L37.1543 28.305C36.599 30.3653 35.693 33.7268 35.3668 37.7637Z" fill="#FBA927"/>
<path d="M42.5948 62.9396C45.8073 64.4249 50.6539 63.4331 51.9644 58.9645C53.0899 55.1259 53.8651 52.6761 59.2045 45.1272C59.6242 44.5336 59.0906 43.7385 58.378 43.9039C44.6352 47.0991 40.8077 51.881 39.9179 54.4594C38.9857 57.1595 39.3823 61.4544 42.5948 62.9396Z" fill="#FBA927"/>
<path d="M46.8385 68.339C45.9506 69.8587 44.0845 69.7883 43.0433 68.9571C42.0021 68.1255 42.2488 66.5169 42.8367 65.611C43.3449 64.8276 45.0961 63.5991 49.3707 63.7102C50.1192 63.7299 50.3643 64.6725 49.7693 65.1221C48.0361 66.432 47.4737 67.2513 46.8385 68.339Z" fill="#FBA927"/>
<path fill-rule="evenodd" clip-rule="evenodd" d="M52.4011 64.4423C55.615 62.8957 60.2947 60.202 62.0028 56.9771C64.224 52.7843 65.1295 47.0129 66.0271 41.2929C67.4555 32.189 68.8636 23.2142 75.5217 20.9357C70.9709 21.0682 68.026 22.1283 68.026 22.1283C68.026 22.1283 50.5762 26.8023 55.7119 40.149C56.7828 42.9315 56.5152 44.9189 52.2321 42.7991C46.878 40.149 47.9489 28.1241 58.3891 22.5258C67.0377 17.8881 77.5294 16.6956 88.1035 17.8881C103.297 19.6016 107.289 31.2711 100.819 46.5091C96.9377 55.652 89.0406 64.7946 73.3801 66.2521C66.8856 66.8566 57.6746 66.4255 52.689 66.1087C51.8351 66.0544 51.6315 64.8127 52.4011 64.4423ZM72.2295 43.8416C73.6119 35.6594 74.6985 29.226 79.5372 20.9356L79.5395 20.9355C84.3011 20.3731 88.6479 21.2304 91.4972 24.519C94.7436 27.5822 96.2879 32.5397 95.5991 39.2215C95.2691 42.4219 94.4903 46.3557 92.8844 50.097C91.4763 54.0276 89.0876 57.3475 84.8913 60.0244C77.3698 64.8231 64.9477 62.4097 64.9477 62.4097C64.9477 62.4097 68.7618 60.3551 69.8503 56.12C69.8676 56.0528 69.8843 55.9853 69.8999 55.9168" fill="#FBA927"/>
</g>
<defs>
<clipPath id="clip0_84_340">
<rect width="110" height="114" fill="white"/>
</clipPath>
</defs>
</svg>
