<svg width="1024" height="1024" viewBox="0 0 1024 1024" fill="none" xmlns="http://www.w3.org/2000/svg">
<path d="M218.941 716.596C204.563 716.596 191.173 713.99 178.772 708.778C166.371 703.566 155.497 696.287 146.151 686.941C136.805 677.595 129.527 666.632 124.314 654.051C119.102 641.47 116.496 627.721 116.496 612.804C116.496 597.886 119.013 584.137 124.045 571.556C129.077 558.796 136.176 547.832 145.343 538.666C154.509 529.32 165.202 522.131 177.424 517.099C189.825 511.887 203.304 509.281 217.862 509.281C232.42 509.281 245.45 511.707 256.953 516.56C268.635 521.412 278.52 527.883 286.608 535.97C294.696 544.058 300.447 553.044 303.862 562.929L266.928 580.722C263.513 571.017 257.492 563.019 248.865 556.729C240.418 550.259 230.084 547.023 217.862 547.023C206 547.023 195.576 549.809 186.59 555.381C177.604 560.952 170.594 568.681 165.562 578.566C160.709 588.271 158.283 599.683 158.283 612.804C158.283 625.924 160.889 637.426 166.101 647.311C171.313 657.196 178.412 664.924 187.399 670.496C196.565 676.067 207.079 678.853 218.941 678.853C228.107 678.853 236.644 677.146 244.552 673.731C252.64 670.136 259.11 665.014 263.962 658.364C268.995 651.714 271.511 643.717 271.511 634.371V617.656L290.652 633.832H217.862V598.785H313.297V620.082C313.297 636.438 310.601 650.726 305.21 662.947C299.818 674.989 292.539 685.054 283.373 693.142C274.386 701.049 264.232 706.98 252.909 710.934C241.766 714.709 230.443 716.596 218.941 716.596Z" fill="#2563EB"/>
<path d="M345.757 713.361V512.516H480.822V548.911H387.543V594.471H475.43V630.866H387.543V676.966H480.822V713.361H345.757Z" fill="#2563EB"/>
<path d="M836.778 716.596C824.197 716.596 812.335 714.349 801.192 709.856C790.229 705.183 780.703 698.623 772.615 690.176C764.707 681.729 758.776 671.754 754.822 660.251L789.06 644.885C794.093 655.848 801.012 664.475 809.819 670.766C818.805 677.056 828.69 680.201 839.474 680.201C845.225 680.201 850.167 679.302 854.301 677.505C858.435 675.708 861.67 673.282 864.006 670.226C866.343 666.991 867.511 663.217 867.511 658.904C867.511 654.231 866.073 650.277 863.198 647.042C860.322 643.627 855.829 640.931 849.718 638.954L810.358 626.013C794.362 620.801 782.32 613.433 774.233 603.907C766.145 594.202 762.101 582.609 762.101 569.13C762.101 557.268 764.977 546.844 770.728 537.857C776.659 528.871 784.837 521.862 795.261 516.829C805.865 511.797 817.996 509.281 831.656 509.281C843.697 509.281 854.84 511.348 865.085 515.481C875.329 519.615 884.136 525.456 891.505 533.005C899.053 540.553 904.715 549.629 908.489 560.233L874.52 575.6C870.746 566.254 865.085 558.975 857.536 553.763C849.988 548.371 841.361 545.676 831.656 545.676C826.084 545.676 821.142 546.574 816.828 548.371C812.515 550.169 809.19 552.775 806.853 556.19C804.517 559.425 803.349 563.199 803.349 567.512C803.349 572.185 804.876 576.319 807.932 579.913C810.987 583.328 815.57 586.024 821.681 588.001L860.232 600.402C876.408 605.614 888.449 612.893 896.357 622.239C904.445 631.585 908.489 642.998 908.489 656.477C908.489 668.159 905.434 678.584 899.323 687.75C893.212 696.736 884.765 703.835 873.981 709.047C863.377 714.08 850.976 716.596 836.778 716.596Z" fill="#2563EB"/>
<path d="M518.342 713.361V521.43C518.342 516.528 522.316 512.555 527.218 512.555H555.652C557.677 512.555 559.641 513.247 561.218 514.517L626.563 567.124C629.036 569.114 627.628 573.107 624.454 573.107C621.303 573.107 619.882 569.164 622.307 567.154L685.721 514.597C687.313 513.277 689.316 512.555 691.384 512.555H719.747C724.649 512.555 728.623 516.528 728.623 521.43L728.623 713.361H686.836V565.038C686.836 561.766 689.872 559.34 693.063 560.061C697.259 561.008 698.471 566.404 695.083 569.056L626.178 622.982H620.786L552.877 567.916C550.057 565.629 551.016 561.108 554.523 560.164C557.35 559.403 560.129 561.533 560.129 564.46V713.361H518.342Z" fill="#2563EB"/>
<path d="M622.945 367.22C628.768 367.22 634.425 369.16 639.021 372.735L748.775 458.082C758.633 465.752 753.187 481.523 740.724 481.523H736.548C731.646 481.523 727.672 485.497 727.672 490.399V495.913C727.672 500.815 723.699 504.789 718.797 504.789H686.208C683.346 504.789 680.659 503.408 678.992 501.081L658.881 472.995C657.215 470.668 654.528 469.287 651.665 469.287H595.885C593.023 469.287 590.336 470.668 588.669 472.995L568.558 501.081C566.892 503.408 564.205 504.789 561.342 504.789H527.093C522.191 504.789 518.217 500.815 518.217 495.913V490.399C518.217 485.497 514.244 481.523 509.342 481.523H505.165C492.69 481.523 487.271 465.752 497.114 458.069L606.869 372.735C611.465 369.16 617.122 367.22 622.945 367.22Z" fill="#20D250"/>
<path d="M372.941 243.551L155.32 457.638L377.56 285.93C388.013 277.854 401.928 275.834 414.246 280.605L460.446 298.499C468.668 301.684 477.746 301.888 486.103 299.075L601.989 260.067C627.342 251.534 655.318 257.064 675.516 274.602L920.823 487.593L680.333 219.261C658.469 194.865 622.594 188.929 594.037 204.981L492.925 261.815C480.768 268.648 465.832 268.216 454.09 260.691L419.746 238.682C404.921 229.181 385.494 231.202 372.941 243.551Z" fill="#20D250"/>
</svg>
